# xmcd
#
# Track frame offsets:
# 150
# 12837
# 24225
# 36362
# 51705
# 67447
# 83312
# 99727
# 118930
# 132695
# 145960
# 157407
# 175942
#
# Disc length: 2515 seconds
#
#
# Revision: 8
# Processed by: cddbd v1.5.2PL0 Copyright (c) Steve Scherf et al.
# Submitted via: FreeRIP 2.945 
#
DISCID=c509d10d
DTITLE=Waylon Jennings - The Ramblin' Man
DYEAR=1974
DGENRE=Country
TTITLE0=I'm A Ramblin' Man
TTITLE1=Rainy Day Woman
TTITLE2=Cloudy Days
TTITLE3=Midnight Rider
TTITLE4=Oklahoma Sunshine
TTITLE5=The Hunger
TTITLE6=I Can't Keep My Hands Off Of You
TTITLE7=Memories Of You And I
TTITLE8=It'll Be Her
TTITLE9=Amanda
TTITLE10=Got A Lot Going For Me (Bonus Track - not on original album)
TTITLE11=The Last Letter (Bonus Track - not on original album)
TTITLE12=The One I Sing My Love Song To (Bonus Track - not on original album)
EXTD=
EXTT0=
EXTT1=
EXTT2=
EXTT3=
EXTT4=
EXTT5=
EXTT6=
EXTT7=
EXTT8=
EXTT9=
EXTT10=
EXTT11=
EXTT12=
PLAYORDER=
